<svg width="24" height="24" viewBox="0 0 24 24" fill="none" xmlns="http://www.w3.org/2000/svg">
<path d="M6 18.55C5.45 18.55 4.97917 18.3542 4.5875 17.9625C4.19583 17.5708 4 17.1 4 16.55V7.45C4 6.9 4.19583 6.42917 4.5875 6.0375C4.97917 5.64583 5.45 5.45 6 5.45H18C18.55 5.45 19.0208 5.64583 19.4125 6.0375C19.8042 6.42917 20 6.9 20 7.45V16.55C20 17.1 19.8042 17.5708 19.4125 17.9625C19.0208 18.3542 18.55 18.55 18 18.55H6ZM6 16.55H18V7.45H6V16.55ZM8 11.45H16V9.45H8V11.45ZM8 14.45H13V12.45H8V14.45Z" fill="#999999"/>
</svg>
